#!OML:ASF E:/inclinewalkrobotboard/Project1/Captureday1/Session1/subject1.ASF
:FULLY-SPECIFIED
:DEGREES
66
root 0 0 0 -2.2752933332822027 -3.9362655535807227 0.4694128658700191
lowerback 7.453033837321712 1.5402218493525823 -2.4899296274828457
upperback 1.7625941235402944 1.913520306773812 -0.03222995017937891
thorax -2.384273336983323 1.004754376844884 1.2616077383481024
lowerneck -9.43019520591754 -5.4652627614576375 -6.289739981209829
upperneck 31.329449495945894 -8.595513947457697 5.834538530090472
head 11.698300861740362 -3.916694466078561 1.9274248423074352
rclavicle -2.287891618471357E-15 1.3403393553120043E-15
rhumerus -8.033282844429891 1.7547524516028465 -79.43328211143029
rradius 49.16039031786169
rwrist -20.85550643297078
rhand -41.895813974957264 15.87381967884374
rfingers 7.125019999999941
rthumb -14.745420266639046 -13.540762781925775
lclavicle -6.164058713925943E-15 6.121216250503742E-16
lhumerus -30.412391994021053 11.397950077525984 78.06595633428587
lradius 25.03319327429113
lwrist -4.470470453084814
lhand -24.032379560003243 21.9594911076311
lfingers 7.12501999999995
lthumb 2.4461584583621043 51.895965562370236
rfemur -12.862095158510998 7.715479136049543 32.95828657562438
rtibia 35.510933294709645
rfoot -14.344474490030711 -9.572853704782776
rtoes 6.9838755041919836
lfemur -25.29663863535179 3.57920939434924 -14.465794199667872
ltibia 58.38487857883262
lfoot -3.5573143483358134 -6.8549003484600295
ltoes -6.667424246517374
67
root 0 0 0 -2.2779208005754006 -3.9266896004853207 0.4705492389517963
lowerback 7.429118901355624 1.5464945180932494 -2.4840453668301197
upperback 1.770564212393742 1.9226841430889396 -0.03645309897206561
thorax -2.3609256067323243 1.0096338759469226 1.25316076520091
lowerneck -9.397042511064738 -5.46450673031887 -6.298079748878278
upperneck 31.306472647594422 -8.596601841827745 5.83738188667487
head 11.689950566114996 -3.9175119101085785 1.9277282505056688
rclavicle -2.5513689519245765E-15 1.3929075872096809E-15
rhumerus -8.424626367927328 2.244413069155324 -79.51919836898557
rradius 49.74385791249572
rwrist -21.025799411613544
rhand -41.86030923673047 15.675080583607118
rfingers 7.125019999999942
rthumb -14.715693958901973 -13.743914156993648
lclavicle -6.310190139002843E-15 6.873967391065573E-16
lhumerus -30.42456909898489 11.361807050040772 78.06710583126143
lradius 25.015047794197773
lwrist -4.495151839941034
lhand -23.984551305344294 21.985897686268096
lfingers 7.12501999999995
lthumb 2.492199435479277 51.92156833185032
rfemur -10.145834244176484 7.880250013287994 33.20324219438259
rtibia 33.4066991317675
rfoot -15.781818888902398 -9.524484410868448
rtoes 6.740494374120654
lfemur -25.864018566617236 3.7241349877534784 -13.964278593769196
ltibia 59.3915366836823
lfoot -4.06473283918871 -6.091970479527232
ltoes -7.167639603273871
68
root 0 0 0 -2.2644488639637057 -3.9046715064861677 0.4755052971192372
lowerback 7.421734782010545 1.5569871030067566 -2.4837459025331667
upperback 1.7933003688137026 1.9363444660474074 -0.043446461981247575
thorax -2.3317155446096716 1.0171858935948244 1.2440316740129873
lowerneck -9.341417207012984 -5.470984861953928 -6.321514564834313
upperneck 31.246700278549877 -8.604624056673684 5.87099075563614
head 11.669366081609375 -3.9221887095292263 1.9399850032402268
rclavicle -2.80851804570706E-15 1.490347352975576E-15
rhumerus -8.881730240493258 2.8059356533743474 -79.6263528356793
rradius 50.39777881566348
rwrist -21.195068973792157
rhand -41.83413042039713 15.479637271029421
rfingers 7.125019999999945
rthumb -14.6949541105257 -13.943696278636047
lclavicle -6.4848810518688844E-15 8.463772670000756E-16
lhumerus -30.475238864067567 11.36286790068603 78.0004175605817
lradius 24.983057209842364
lwrist -4.539961645497756
lhand -23.967590522403665 22.002835090623822
lfingers 7.125019999999951
lthumb 2.508581581235532 51.937975272842344
rfemur -6.50329762103374 8.064353051465297 33.600935036005005
rtibia 31.05550879498177
rfoot -17.516495742816325 -9.43032241157691
rtoes 6.272440502788179
lfemur -26.659906899456185 3.703306642328343 -13.585549229140074
ltibia 59.099224234693175
lfoot -4.54399473100227 -5.3902567617085655
ltoes -7.445089906338913
69
root 0 0 0 -2.237351871874651 -3.87303350765792 0.4838039415049115
lowerback 7.42957911698613 1.57071977975374 -2.489168193209082
upperback 1.8282095788676331 1.9532195581250282 -0.05271398562078877
thorax -2.298645658304 1.0267029032469162 1.2349171404074188
lowerneck -9.268312631167818 -5.484112103908438 -6.3583000621247985
upperneck 31.15948298842846 -8.619280900827636 5.930941404661315
head 11.639705603537577 -3.930446397973074 1.9624274573391913
rclavicle -3.0127183933903282E-15 1.6183845017516265E-15
rhumerus -9.33002763254515 3.3502118935730802 -79.73799960016456
rradius 51.01646329285094
rwrist -21.33701720228786
rhand -41.82332073829978 15.320706062530666
rfingers 7.125019999999948
rthumb -14.688573656769602 -14.10608862212067
lclavicle -6.645999963132287E-15 1.0587188424019809E-15
lhumerus -30.556734451681972 11.403143402311064 77.87465671611514
lradius 24.93992333380874
lwrist -4.60173195739073
lhand -23.982442949300115 22.006814538628998
lfingers 7.125019999999951
lthumb 2.494376551481607 51.94178912722927
rfemur -2.867504557406108 8.224331320859186 34.054047677914745
rtibia 28.989170513488318
rfoot -19.118254985173984 -9.304414767009845
rtoes 5.715945911033238
lfemur -27.740132952820392 3.489088373116779 -13.298055505771739
ltibia 57.36439846921281
lfoot -4.965602923321468 -4.711845750844676
ltoes -7.49368652563183
70
root 0 0 0 -2.186728502096728 -3.8195013652862473 0.49844136843897774
lowerback 7.457247458331611 1.5926754643339027 -2.5037820285691335
upperback 1.8869342198946968 1.979234279853521 -0.06750913716924245
thorax -2.2518847394807096 1.0415034044415994 1.223239511135647
lowerneck -9.156611877363796 -5.509518861185646 -6.422774433871167
upperneck 31.022313778706454 -8.647057609503813 6.038966345218805
head 11.593771410180675 -3.945655979571819 2.003139332396506
rclavicle -3.0840361753792076E-15 1.7574551476328119E-15
rhumerus -9.849584905665981 3.9531624842674713 -79.87960721225193
rradius 51.63092823791232
rwrist -21.468816809825807
rhand -41.82600449506434 15.20330559585621
rfingers 7.12501999999995
rthumb -14.695196592211712 -14.226937066140163
lclavicle -6.742394951139676E-15 1.3253016818912104E-15
lhumerus -30.716836655122442 11.539188077201368 77.6010525989521
lradius 24.870394115934086
lwrist -4.702717742651187
lhand -24.079129435356048 21.978131079404886
lfingers 7.125019999999953
lthumb 2.401590117974721 51.91383722995515
rfemur 0.5937006189507632 8.373593555749402 34.483519686771714
rtibia 27.172329545607703
rfoot -20.51889650937662 -9.194091416564387
rtoes 5.018487741952427
lfemur -29.690110870576596 2.8564740928765495 -12.981823640726226
ltibia 52.55730723155851
lfoot -5.4421403422457 -3.7738105429139335
ltoes -7.207411393047537
